<mxfile host="app.diagrams.net" modified="2022-01-14T08:48:47.957Z" agent="5.0 (Windows NT 10.0; Win64; x64) AppleWebKit/537.36 (KHTML, like Gecko) Chrome/97.0.4692.71 Safari/537.36" etag="r9KkrhH_f8-xrRYCp1Bc" version="16.2.6" type="github">
  <diagram id="C5RBs43oDa-KdzZeNtuy" name="Page-1">
    <mxGraphModel dx="6332" dy="4224" grid="1" gridSize="10" guides="1" tooltips="1" connect="1" arrows="1" fold="1" page="1" pageScale="1" pageWidth="827" pageHeight="1169" math="0" shadow="0">
      <root>
        <mxCell id="WIyWlLk6GJQsqaUBKTNV-0" />
        <mxCell id="WIyWlLk6GJQsqaUBKTNV-1" parent="WIyWlLk6GJQsqaUBKTNV-0" />
        <mxCell id="kj0d2gF9_qynHY76AmNR-4" value="" style="endArrow=none;html=1;rounded=0;" parent="WIyWlLk6GJQsqaUBKTNV-1" edge="1">
          <mxGeometry width="50" height="50" relative="1" as="geometry">
            <mxPoint x="180" y="220" as="sourcePoint" />
            <mxPoint x="1350" y="220" as="targetPoint" />
          </mxGeometry>
        </mxCell>
        <mxCell id="kj0d2gF9_qynHY76AmNR-6" value="" style="endArrow=none;html=1;rounded=0;" parent="WIyWlLk6GJQsqaUBKTNV-1" edge="1">
          <mxGeometry width="50" height="50" relative="1" as="geometry">
            <mxPoint x="182" y="360" as="sourcePoint" />
            <mxPoint x="1352" y="360" as="targetPoint" />
          </mxGeometry>
        </mxCell>
        <mxCell id="kj0d2gF9_qynHY76AmNR-7" value="" style="endArrow=none;html=1;rounded=0;" parent="WIyWlLk6GJQsqaUBKTNV-1" edge="1">
          <mxGeometry width="50" height="50" relative="1" as="geometry">
            <mxPoint x="170" y="530" as="sourcePoint" />
            <mxPoint x="1350" y="530" as="targetPoint" />
          </mxGeometry>
        </mxCell>
        <mxCell id="kj0d2gF9_qynHY76AmNR-8" value="&lt;span style=&quot;color: rgb(126 , 166 , 224) ; font-family: &amp;#34;helvetica&amp;#34; ; font-style: normal ; letter-spacing: normal ; text-align: center ; text-indent: 0px ; text-transform: none ; word-spacing: 0px ; display: inline ; float: none ; background-color: rgb(252 , 252 , 252)&quot;&gt;&lt;font style=&quot;font-size: 30px&quot;&gt;DonationReplyController&lt;/font&gt;&lt;/span&gt;" style="text;whiteSpace=wrap;html=1;" parent="WIyWlLk6GJQsqaUBKTNV-1" vertex="1">
          <mxGeometry x="640" y="140" width="350" height="70" as="geometry" />
        </mxCell>
        <mxCell id="kj0d2gF9_qynHY76AmNR-10" value="&lt;span style=&quot;color: rgb(126 , 166 , 224) ; font-family: &amp;#34;helvetica&amp;#34; ; font-style: normal ; letter-spacing: normal ; text-align: center ; text-indent: 0px ; text-transform: none ; word-spacing: 0px ; display: inline ; float: none ; background-color: rgb(252 , 252 , 252)&quot;&gt;&lt;font style=&quot;font-size: 30px&quot;&gt;DonationReplyDao&lt;br&gt;&lt;/font&gt;&lt;/span&gt;" style="text;whiteSpace=wrap;html=1;fontSize=30;" parent="WIyWlLk6GJQsqaUBKTNV-1" vertex="1">
          <mxGeometry x="685" y="280" width="260" height="70" as="geometry" />
        </mxCell>
        <mxCell id="kj0d2gF9_qynHY76AmNR-12" style="edgeStyle=orthogonalEdgeStyle;rounded=0;orthogonalLoop=1;jettySize=auto;html=1;sketch=1;curved=1;fillColor=#dae8fc;strokeColor=#6c8ebf;entryX=0.5;entryY=0;entryDx=0;entryDy=0;exitX=0.5;exitY=1;exitDx=0;exitDy=0;" parent="WIyWlLk6GJQsqaUBKTNV-1" source="kj0d2gF9_qynHY76AmNR-8" target="kj0d2gF9_qynHY76AmNR-10" edge="1">
          <mxGeometry relative="1" as="geometry">
            <Array as="points">
              <mxPoint x="815" y="240" />
              <mxPoint x="815" y="240" />
            </Array>
            <mxPoint x="760" y="210" as="sourcePoint" />
            <mxPoint x="660" y="391" as="targetPoint" />
          </mxGeometry>
        </mxCell>
        <mxCell id="kj0d2gF9_qynHY76AmNR-14" value="&lt;span style=&quot;color: rgb(126 , 166 , 224) ; font-family: &amp;#34;helvetica&amp;#34; ; font-style: normal ; letter-spacing: normal ; text-align: center ; text-indent: 0px ; text-transform: none ; word-spacing: 0px ; display: inline ; float: none ; background-color: rgb(252 , 252 , 252)&quot;&gt;&lt;font style=&quot;font-size: 30px&quot;&gt;doantion_reply&lt;br&gt;&lt;/font&gt;&lt;/span&gt;" style="text;whiteSpace=wrap;html=1;fontSize=30;" parent="WIyWlLk6GJQsqaUBKTNV-1" vertex="1">
          <mxGeometry x="707.5" y="440" width="215" height="70" as="geometry" />
        </mxCell>
        <mxCell id="kj0d2gF9_qynHY76AmNR-15" style="edgeStyle=orthogonalEdgeStyle;rounded=0;orthogonalLoop=1;jettySize=auto;html=1;sketch=1;curved=1;fillColor=#dae8fc;strokeColor=#6c8ebf;entryX=0.5;entryY=0;entryDx=0;entryDy=0;exitX=0.5;exitY=1;exitDx=0;exitDy=0;" parent="WIyWlLk6GJQsqaUBKTNV-1" target="kj0d2gF9_qynHY76AmNR-14" edge="1">
          <mxGeometry relative="1" as="geometry">
            <Array as="points">
              <mxPoint x="815" y="436" />
            </Array>
            <mxPoint x="814.8" y="340" as="sourcePoint" />
            <mxPoint x="814.8" y="410" as="targetPoint" />
          </mxGeometry>
        </mxCell>
        <mxCell id="kj0d2gF9_qynHY76AmNR-29" value="" style="rounded=0;whiteSpace=wrap;html=1;fontSize=15;" parent="WIyWlLk6GJQsqaUBKTNV-1" vertex="1">
          <mxGeometry x="-4440" y="-2150" width="870" height="330" as="geometry" />
        </mxCell>
        <mxCell id="kj0d2gF9_qynHY76AmNR-30" value="CONTROLLER" style="text;html=1;strokeColor=none;fillColor=none;align=center;verticalAlign=middle;whiteSpace=wrap;rounded=0;fontColor=#1D3557;" parent="WIyWlLk6GJQsqaUBKTNV-1" vertex="1">
          <mxGeometry x="-4405" y="-2100" width="80" height="20" as="geometry" />
        </mxCell>
        <mxCell id="kj0d2gF9_qynHY76AmNR-31" value="SERVICE" style="text;html=1;strokeColor=none;fillColor=none;align=center;verticalAlign=middle;whiteSpace=wrap;rounded=0;fontColor=#1D3557;" parent="WIyWlLk6GJQsqaUBKTNV-1" vertex="1">
          <mxGeometry x="-4405" y="-2040" width="80" height="20" as="geometry" />
        </mxCell>
        <mxCell id="kj0d2gF9_qynHY76AmNR-32" value="REPOSITORY" style="text;html=1;strokeColor=none;fillColor=none;align=center;verticalAlign=middle;whiteSpace=wrap;rounded=0;fontColor=#1D3557;" parent="WIyWlLk6GJQsqaUBKTNV-1" vertex="1">
          <mxGeometry x="-4405" y="-1960" width="80" height="20" as="geometry" />
        </mxCell>
        <mxCell id="kj0d2gF9_qynHY76AmNR-33" value="DB 테이블" style="text;html=1;strokeColor=none;fillColor=none;align=center;verticalAlign=middle;whiteSpace=wrap;rounded=0;fontColor=#1D3557;" parent="WIyWlLk6GJQsqaUBKTNV-1" vertex="1">
          <mxGeometry x="-4405" y="-1875" width="80" height="20" as="geometry" />
        </mxCell>
        <mxCell id="kj0d2gF9_qynHY76AmNR-34" value="" style="endArrow=none;html=1;rounded=0;labelBackgroundColor=#F1FAEE;strokeColor=#457B9D;fontColor=#1D3557;" parent="WIyWlLk6GJQsqaUBKTNV-1" edge="1">
          <mxGeometry width="50" height="50" relative="1" as="geometry">
            <mxPoint x="-4415" y="-2060" as="sourcePoint" />
            <mxPoint x="-3615" y="-2060" as="targetPoint" />
          </mxGeometry>
        </mxCell>
        <mxCell id="kj0d2gF9_qynHY76AmNR-35" value="" style="edgeStyle=orthogonalEdgeStyle;rounded=1;sketch=0;orthogonalLoop=1;jettySize=auto;html=1;fontSize=15;fontColor=#7EA6E0;strokeColor=#7EA6E0;fillColor=#A8DADC;" parent="WIyWlLk6GJQsqaUBKTNV-1" source="kj0d2gF9_qynHY76AmNR-36" target="kj0d2gF9_qynHY76AmNR-40" edge="1">
          <mxGeometry relative="1" as="geometry" />
        </mxCell>
        <mxCell id="kj0d2gF9_qynHY76AmNR-36" value="MybabyReplyController" style="text;html=1;strokeColor=none;fillColor=none;align=center;verticalAlign=middle;whiteSpace=wrap;rounded=0;fontSize=20;fontColor=#7EA6E0;" parent="WIyWlLk6GJQsqaUBKTNV-1" vertex="1">
          <mxGeometry x="-4065" y="-2120" width="120" height="30" as="geometry" />
        </mxCell>
        <mxCell id="kj0d2gF9_qynHY76AmNR-37" value="" style="endArrow=none;html=1;rounded=0;labelBackgroundColor=#F1FAEE;strokeColor=#457B9D;fontColor=#1D3557;" parent="WIyWlLk6GJQsqaUBKTNV-1" edge="1">
          <mxGeometry width="50" height="50" relative="1" as="geometry">
            <mxPoint x="-4415" y="-2000" as="sourcePoint" />
            <mxPoint x="-3615" y="-2000" as="targetPoint" />
          </mxGeometry>
        </mxCell>
        <mxCell id="kj0d2gF9_qynHY76AmNR-38" value="" style="endArrow=none;html=1;rounded=0;labelBackgroundColor=#F1FAEE;strokeColor=#457B9D;fontColor=#1D3557;" parent="WIyWlLk6GJQsqaUBKTNV-1" edge="1">
          <mxGeometry width="50" height="50" relative="1" as="geometry">
            <mxPoint x="-4415" y="-1900" as="sourcePoint" />
            <mxPoint x="-3615" y="-1900" as="targetPoint" />
          </mxGeometry>
        </mxCell>
        <mxCell id="kj0d2gF9_qynHY76AmNR-39" value="" style="edgeStyle=orthogonalEdgeStyle;rounded=1;sketch=0;orthogonalLoop=1;jettySize=auto;html=1;fontSize=15;fontColor=#7EA6E0;strokeColor=#7EA6E0;fillColor=#A8DADC;" parent="WIyWlLk6GJQsqaUBKTNV-1" source="kj0d2gF9_qynHY76AmNR-40" target="kj0d2gF9_qynHY76AmNR-41" edge="1">
          <mxGeometry relative="1" as="geometry" />
        </mxCell>
        <mxCell id="kj0d2gF9_qynHY76AmNR-40" value="MybabyReplyDao" style="text;html=1;strokeColor=none;fillColor=none;align=center;verticalAlign=middle;whiteSpace=wrap;rounded=0;fontSize=15;fontColor=#7EA6E0;" parent="WIyWlLk6GJQsqaUBKTNV-1" vertex="1">
          <mxGeometry x="-4065" y="-1965" width="120" height="30" as="geometry" />
        </mxCell>
        <mxCell id="kj0d2gF9_qynHY76AmNR-41" value="mybaby_reply" style="text;html=1;strokeColor=none;fillColor=none;align=center;verticalAlign=middle;whiteSpace=wrap;rounded=0;fontSize=15;fontColor=#7EA6E0;" parent="WIyWlLk6GJQsqaUBKTNV-1" vertex="1">
          <mxGeometry x="-4065" y="-1880" width="120" height="30" as="geometry" />
        </mxCell>
        <mxCell id="kj0d2gF9_qynHY76AmNR-42" value="" style="rounded=0;whiteSpace=wrap;html=1;fontSize=15;" parent="WIyWlLk6GJQsqaUBKTNV-1" vertex="1">
          <mxGeometry x="-4440" y="-2550" width="870" height="330" as="geometry" />
        </mxCell>
        <mxCell id="kj0d2gF9_qynHY76AmNR-43" value="CONTROLLER" style="text;html=1;strokeColor=none;fillColor=none;align=center;verticalAlign=middle;whiteSpace=wrap;rounded=0;fontColor=#1D3557;" parent="WIyWlLk6GJQsqaUBKTNV-1" vertex="1">
          <mxGeometry x="-4405" y="-2500" width="80" height="20" as="geometry" />
        </mxCell>
        <mxCell id="kj0d2gF9_qynHY76AmNR-44" value="SERVICE" style="text;html=1;strokeColor=none;fillColor=none;align=center;verticalAlign=middle;whiteSpace=wrap;rounded=0;fontColor=#1D3557;" parent="WIyWlLk6GJQsqaUBKTNV-1" vertex="1">
          <mxGeometry x="-4405" y="-2440" width="80" height="20" as="geometry" />
        </mxCell>
        <mxCell id="kj0d2gF9_qynHY76AmNR-45" value="REPOSITORY" style="text;html=1;strokeColor=none;fillColor=none;align=center;verticalAlign=middle;whiteSpace=wrap;rounded=0;fontColor=#1D3557;" parent="WIyWlLk6GJQsqaUBKTNV-1" vertex="1">
          <mxGeometry x="-4405" y="-2360" width="80" height="20" as="geometry" />
        </mxCell>
        <mxCell id="kj0d2gF9_qynHY76AmNR-46" value="DB 테이블" style="text;html=1;strokeColor=none;fillColor=none;align=center;verticalAlign=middle;whiteSpace=wrap;rounded=0;fontColor=#1D3557;" parent="WIyWlLk6GJQsqaUBKTNV-1" vertex="1">
          <mxGeometry x="-4405" y="-2275" width="80" height="20" as="geometry" />
        </mxCell>
        <mxCell id="kj0d2gF9_qynHY76AmNR-47" value="" style="endArrow=none;html=1;rounded=0;labelBackgroundColor=#F1FAEE;strokeColor=#457B9D;fontColor=#1D3557;" parent="WIyWlLk6GJQsqaUBKTNV-1" edge="1">
          <mxGeometry width="50" height="50" relative="1" as="geometry">
            <mxPoint x="-4415" y="-2460" as="sourcePoint" />
            <mxPoint x="-3615" y="-2460" as="targetPoint" />
          </mxGeometry>
        </mxCell>
        <mxCell id="kj0d2gF9_qynHY76AmNR-48" value="" style="edgeStyle=orthogonalEdgeStyle;rounded=1;sketch=0;orthogonalLoop=1;jettySize=auto;html=1;fontSize=15;fontColor=#7EA6E0;strokeColor=#7EA6E0;fillColor=#A8DADC;" parent="WIyWlLk6GJQsqaUBKTNV-1" source="kj0d2gF9_qynHY76AmNR-49" target="kj0d2gF9_qynHY76AmNR-53" edge="1">
          <mxGeometry relative="1" as="geometry" />
        </mxCell>
        <mxCell id="kj0d2gF9_qynHY76AmNR-49" value="ShopReplyController" style="text;html=1;strokeColor=none;fillColor=none;align=center;verticalAlign=middle;whiteSpace=wrap;rounded=0;fontSize=20;fontColor=#7EA6E0;" parent="WIyWlLk6GJQsqaUBKTNV-1" vertex="1">
          <mxGeometry x="-4065" y="-2520" width="120" height="30" as="geometry" />
        </mxCell>
        <mxCell id="kj0d2gF9_qynHY76AmNR-50" value="" style="endArrow=none;html=1;rounded=0;labelBackgroundColor=#F1FAEE;strokeColor=#457B9D;fontColor=#1D3557;" parent="WIyWlLk6GJQsqaUBKTNV-1" edge="1">
          <mxGeometry width="50" height="50" relative="1" as="geometry">
            <mxPoint x="-4415" y="-2400" as="sourcePoint" />
            <mxPoint x="-3615" y="-2400" as="targetPoint" />
          </mxGeometry>
        </mxCell>
        <mxCell id="kj0d2gF9_qynHY76AmNR-51" value="" style="endArrow=none;html=1;rounded=0;labelBackgroundColor=#F1FAEE;strokeColor=#457B9D;fontColor=#1D3557;" parent="WIyWlLk6GJQsqaUBKTNV-1" edge="1">
          <mxGeometry width="50" height="50" relative="1" as="geometry">
            <mxPoint x="-4415" y="-2300" as="sourcePoint" />
            <mxPoint x="-3615" y="-2300" as="targetPoint" />
          </mxGeometry>
        </mxCell>
        <mxCell id="kj0d2gF9_qynHY76AmNR-52" value="" style="edgeStyle=orthogonalEdgeStyle;rounded=1;sketch=0;orthogonalLoop=1;jettySize=auto;html=1;fontSize=15;fontColor=#7EA6E0;strokeColor=#7EA6E0;fillColor=#A8DADC;" parent="WIyWlLk6GJQsqaUBKTNV-1" source="kj0d2gF9_qynHY76AmNR-53" target="kj0d2gF9_qynHY76AmNR-54" edge="1">
          <mxGeometry relative="1" as="geometry" />
        </mxCell>
        <mxCell id="kj0d2gF9_qynHY76AmNR-53" value="ShopReplyDao" style="text;html=1;strokeColor=none;fillColor=none;align=center;verticalAlign=middle;whiteSpace=wrap;rounded=0;fontSize=15;fontColor=#7EA6E0;" parent="WIyWlLk6GJQsqaUBKTNV-1" vertex="1">
          <mxGeometry x="-4065" y="-2365" width="120" height="30" as="geometry" />
        </mxCell>
        <mxCell id="kj0d2gF9_qynHY76AmNR-54" value="shop_reply" style="text;html=1;strokeColor=none;fillColor=none;align=center;verticalAlign=middle;whiteSpace=wrap;rounded=0;fontSize=15;fontColor=#7EA6E0;" parent="WIyWlLk6GJQsqaUBKTNV-1" vertex="1">
          <mxGeometry x="-4065" y="-2280" width="120" height="30" as="geometry" />
        </mxCell>
        <mxCell id="kj0d2gF9_qynHY76AmNR-55" value="" style="rounded=0;whiteSpace=wrap;html=1;fontSize=15;" parent="WIyWlLk6GJQsqaUBKTNV-1" vertex="1">
          <mxGeometry x="-4450" y="-3000" width="870" height="330" as="geometry" />
        </mxCell>
        <mxCell id="kj0d2gF9_qynHY76AmNR-56" value="CONTROLLER" style="text;html=1;strokeColor=none;fillColor=none;align=center;verticalAlign=middle;whiteSpace=wrap;rounded=0;fontColor=#1D3557;" parent="WIyWlLk6GJQsqaUBKTNV-1" vertex="1">
          <mxGeometry x="-4405" y="-2950" width="80" height="20" as="geometry" />
        </mxCell>
        <mxCell id="kj0d2gF9_qynHY76AmNR-57" value="SERVICE" style="text;html=1;strokeColor=none;fillColor=none;align=center;verticalAlign=middle;whiteSpace=wrap;rounded=0;fontColor=#1D3557;" parent="WIyWlLk6GJQsqaUBKTNV-1" vertex="1">
          <mxGeometry x="-4405" y="-2890" width="80" height="20" as="geometry" />
        </mxCell>
        <mxCell id="kj0d2gF9_qynHY76AmNR-58" value="REPOSITORY" style="text;html=1;strokeColor=none;fillColor=none;align=center;verticalAlign=middle;whiteSpace=wrap;rounded=0;fontColor=#1D3557;" parent="WIyWlLk6GJQsqaUBKTNV-1" vertex="1">
          <mxGeometry x="-4405" y="-2810" width="80" height="20" as="geometry" />
        </mxCell>
        <mxCell id="kj0d2gF9_qynHY76AmNR-59" value="DB 테이블" style="text;html=1;strokeColor=none;fillColor=none;align=center;verticalAlign=middle;whiteSpace=wrap;rounded=0;fontColor=#1D3557;" parent="WIyWlLk6GJQsqaUBKTNV-1" vertex="1">
          <mxGeometry x="-4405" y="-2725" width="80" height="20" as="geometry" />
        </mxCell>
        <mxCell id="kj0d2gF9_qynHY76AmNR-60" value="" style="endArrow=none;html=1;rounded=0;labelBackgroundColor=#F1FAEE;strokeColor=#457B9D;fontColor=#1D3557;" parent="WIyWlLk6GJQsqaUBKTNV-1" edge="1">
          <mxGeometry width="50" height="50" relative="1" as="geometry">
            <mxPoint x="-4415" y="-2910" as="sourcePoint" />
            <mxPoint x="-3615" y="-2910" as="targetPoint" />
          </mxGeometry>
        </mxCell>
        <mxCell id="kj0d2gF9_qynHY76AmNR-61" value="" style="edgeStyle=orthogonalEdgeStyle;rounded=1;sketch=0;orthogonalLoop=1;jettySize=auto;html=1;fontSize=15;fontColor=#7EA6E0;strokeColor=#7EA6E0;fillColor=#A8DADC;" parent="WIyWlLk6GJQsqaUBKTNV-1" source="kj0d2gF9_qynHY76AmNR-62" target="kj0d2gF9_qynHY76AmNR-66" edge="1">
          <mxGeometry relative="1" as="geometry" />
        </mxCell>
        <mxCell id="kj0d2gF9_qynHY76AmNR-62" value="DonationReplyController" style="text;html=1;strokeColor=none;fillColor=none;align=center;verticalAlign=middle;whiteSpace=wrap;rounded=0;fontSize=20;fontColor=#7EA6E0;" parent="WIyWlLk6GJQsqaUBKTNV-1" vertex="1">
          <mxGeometry x="-4065" y="-2970" width="120" height="30" as="geometry" />
        </mxCell>
        <mxCell id="kj0d2gF9_qynHY76AmNR-63" value="" style="endArrow=none;html=1;rounded=0;labelBackgroundColor=#F1FAEE;strokeColor=#457B9D;fontColor=#1D3557;" parent="WIyWlLk6GJQsqaUBKTNV-1" edge="1">
          <mxGeometry width="50" height="50" relative="1" as="geometry">
            <mxPoint x="-4415" y="-2850" as="sourcePoint" />
            <mxPoint x="-3615" y="-2850" as="targetPoint" />
          </mxGeometry>
        </mxCell>
        <mxCell id="kj0d2gF9_qynHY76AmNR-64" value="" style="endArrow=none;html=1;rounded=0;labelBackgroundColor=#F1FAEE;strokeColor=#457B9D;fontColor=#1D3557;" parent="WIyWlLk6GJQsqaUBKTNV-1" edge="1">
          <mxGeometry width="50" height="50" relative="1" as="geometry">
            <mxPoint x="-4415" y="-2750" as="sourcePoint" />
            <mxPoint x="-3615" y="-2750" as="targetPoint" />
          </mxGeometry>
        </mxCell>
        <mxCell id="kj0d2gF9_qynHY76AmNR-65" value="" style="edgeStyle=orthogonalEdgeStyle;rounded=1;sketch=0;orthogonalLoop=1;jettySize=auto;html=1;fontSize=15;fontColor=#7EA6E0;strokeColor=#7EA6E0;fillColor=#A8DADC;" parent="WIyWlLk6GJQsqaUBKTNV-1" source="kj0d2gF9_qynHY76AmNR-66" target="kj0d2gF9_qynHY76AmNR-67" edge="1">
          <mxGeometry relative="1" as="geometry" />
        </mxCell>
        <mxCell id="kj0d2gF9_qynHY76AmNR-66" value="DonationReplyDao" style="text;html=1;strokeColor=none;fillColor=none;align=center;verticalAlign=middle;whiteSpace=wrap;rounded=0;fontSize=15;fontColor=#7EA6E0;" parent="WIyWlLk6GJQsqaUBKTNV-1" vertex="1">
          <mxGeometry x="-4065" y="-2815" width="120" height="30" as="geometry" />
        </mxCell>
        <mxCell id="kj0d2gF9_qynHY76AmNR-67" value="donation_reply" style="text;html=1;strokeColor=none;fillColor=none;align=center;verticalAlign=middle;whiteSpace=wrap;rounded=0;fontSize=15;fontColor=#7EA6E0;" parent="WIyWlLk6GJQsqaUBKTNV-1" vertex="1">
          <mxGeometry x="-4065" y="-2730" width="120" height="30" as="geometry" />
        </mxCell>
      </root>
    </mxGraphModel>
  </diagram>
</mxfile>
